<mxfile host="app.diagrams.net" modified="2023-11-06T09:26:47.802Z" agent="Mozilla/5.0 (Windows NT 10.0; Win64; x64) AppleWebKit/537.36 (KHTML, like Gecko) Chrome/119.0.0.0 Safari/537.36" etag="y9gR8LMUEn6pLb9usqqa" version="22.0.8" type="device">
  <diagram id="C5RBs43oDa-KdzZeNtuy" name="Page-1">
    <mxGraphModel dx="1877" dy="557" grid="1" gridSize="10" guides="1" tooltips="1" connect="1" arrows="1" fold="1" page="1" pageScale="1" pageWidth="827" pageHeight="1169" math="0" shadow="0">
      <root>
        <mxCell id="WIyWlLk6GJQsqaUBKTNV-0" />
        <mxCell id="WIyWlLk6GJQsqaUBKTNV-1" parent="WIyWlLk6GJQsqaUBKTNV-0" />
        <mxCell id="RIEwCdSfMcbfSn0Imqg3-4" style="edgeStyle=orthogonalEdgeStyle;rounded=0;orthogonalLoop=1;jettySize=auto;html=1;" edge="1" parent="WIyWlLk6GJQsqaUBKTNV-1" source="RIEwCdSfMcbfSn0Imqg3-0" target="RIEwCdSfMcbfSn0Imqg3-1">
          <mxGeometry relative="1" as="geometry" />
        </mxCell>
        <mxCell id="RIEwCdSfMcbfSn0Imqg3-0" value="Start" style="ellipse;whiteSpace=wrap;html=1;" vertex="1" parent="WIyWlLk6GJQsqaUBKTNV-1">
          <mxGeometry x="-30" y="100" width="120" height="80" as="geometry" />
        </mxCell>
        <mxCell id="RIEwCdSfMcbfSn0Imqg3-5" style="edgeStyle=orthogonalEdgeStyle;rounded=0;orthogonalLoop=1;jettySize=auto;html=1;" edge="1" parent="WIyWlLk6GJQsqaUBKTNV-1" source="RIEwCdSfMcbfSn0Imqg3-1" target="RIEwCdSfMcbfSn0Imqg3-2">
          <mxGeometry relative="1" as="geometry" />
        </mxCell>
        <mxCell id="RIEwCdSfMcbfSn0Imqg3-1" value="a,b,c ,max" style="rounded=0;whiteSpace=wrap;html=1;" vertex="1" parent="WIyWlLk6GJQsqaUBKTNV-1">
          <mxGeometry x="-30" y="220" width="120" height="60" as="geometry" />
        </mxCell>
        <mxCell id="RIEwCdSfMcbfSn0Imqg3-7" style="edgeStyle=orthogonalEdgeStyle;rounded=0;orthogonalLoop=1;jettySize=auto;html=1;" edge="1" parent="WIyWlLk6GJQsqaUBKTNV-1" source="RIEwCdSfMcbfSn0Imqg3-2" target="RIEwCdSfMcbfSn0Imqg3-6">
          <mxGeometry relative="1" as="geometry" />
        </mxCell>
        <mxCell id="RIEwCdSfMcbfSn0Imqg3-2" value="a,b,c" style="shape=parallelogram;perimeter=parallelogramPerimeter;whiteSpace=wrap;html=1;fixedSize=1;" vertex="1" parent="WIyWlLk6GJQsqaUBKTNV-1">
          <mxGeometry x="-30" y="330" width="120" height="60" as="geometry" />
        </mxCell>
        <mxCell id="RIEwCdSfMcbfSn0Imqg3-28" style="edgeStyle=orthogonalEdgeStyle;rounded=0;orthogonalLoop=1;jettySize=auto;html=1;entryX=0.5;entryY=1;entryDx=0;entryDy=0;" edge="1" parent="WIyWlLk6GJQsqaUBKTNV-1" source="RIEwCdSfMcbfSn0Imqg3-3" target="RIEwCdSfMcbfSn0Imqg3-22">
          <mxGeometry relative="1" as="geometry" />
        </mxCell>
        <mxCell id="RIEwCdSfMcbfSn0Imqg3-29" value="false" style="edgeLabel;html=1;align=center;verticalAlign=middle;resizable=0;points=[];" vertex="1" connectable="0" parent="RIEwCdSfMcbfSn0Imqg3-28">
          <mxGeometry x="-0.1906" y="1" relative="1" as="geometry">
            <mxPoint as="offset" />
          </mxGeometry>
        </mxCell>
        <mxCell id="RIEwCdSfMcbfSn0Imqg3-3" value="max &amp;lt; b" style="rhombus;whiteSpace=wrap;html=1;" vertex="1" parent="WIyWlLk6GJQsqaUBKTNV-1">
          <mxGeometry x="180" y="420" width="80" height="80" as="geometry" />
        </mxCell>
        <mxCell id="RIEwCdSfMcbfSn0Imqg3-8" style="edgeStyle=orthogonalEdgeStyle;rounded=0;orthogonalLoop=1;jettySize=auto;html=1;" edge="1" parent="WIyWlLk6GJQsqaUBKTNV-1" source="RIEwCdSfMcbfSn0Imqg3-6" target="RIEwCdSfMcbfSn0Imqg3-3">
          <mxGeometry relative="1" as="geometry" />
        </mxCell>
        <mxCell id="RIEwCdSfMcbfSn0Imqg3-6" value="Max = a" style="rounded=0;whiteSpace=wrap;html=1;" vertex="1" parent="WIyWlLk6GJQsqaUBKTNV-1">
          <mxGeometry x="-30" y="430" width="120" height="60" as="geometry" />
        </mxCell>
        <mxCell id="RIEwCdSfMcbfSn0Imqg3-25" style="edgeStyle=orthogonalEdgeStyle;rounded=0;orthogonalLoop=1;jettySize=auto;html=1;entryX=0;entryY=0.5;entryDx=0;entryDy=0;" edge="1" parent="WIyWlLk6GJQsqaUBKTNV-1" source="RIEwCdSfMcbfSn0Imqg3-12" target="RIEwCdSfMcbfSn0Imqg3-22">
          <mxGeometry relative="1" as="geometry" />
        </mxCell>
        <mxCell id="RIEwCdSfMcbfSn0Imqg3-12" value="max = b" style="rounded=1;whiteSpace=wrap;html=1;" vertex="1" parent="WIyWlLk6GJQsqaUBKTNV-1">
          <mxGeometry x="180" y="280" width="120" height="60" as="geometry" />
        </mxCell>
        <mxCell id="RIEwCdSfMcbfSn0Imqg3-35" style="edgeStyle=orthogonalEdgeStyle;rounded=0;orthogonalLoop=1;jettySize=auto;html=1;" edge="1" parent="WIyWlLk6GJQsqaUBKTNV-1" source="RIEwCdSfMcbfSn0Imqg3-20" target="RIEwCdSfMcbfSn0Imqg3-30">
          <mxGeometry relative="1" as="geometry" />
        </mxCell>
        <mxCell id="RIEwCdSfMcbfSn0Imqg3-20" value="max = c" style="rounded=0;whiteSpace=wrap;html=1;" vertex="1" parent="WIyWlLk6GJQsqaUBKTNV-1">
          <mxGeometry x="450" y="270" width="120" height="60" as="geometry" />
        </mxCell>
        <mxCell id="RIEwCdSfMcbfSn0Imqg3-23" style="edgeStyle=orthogonalEdgeStyle;rounded=0;orthogonalLoop=1;jettySize=auto;html=1;" edge="1" parent="WIyWlLk6GJQsqaUBKTNV-1" source="RIEwCdSfMcbfSn0Imqg3-22" target="RIEwCdSfMcbfSn0Imqg3-20">
          <mxGeometry relative="1" as="geometry" />
        </mxCell>
        <mxCell id="RIEwCdSfMcbfSn0Imqg3-24" value="true" style="edgeLabel;html=1;align=center;verticalAlign=middle;resizable=0;points=[];" vertex="1" connectable="0" parent="RIEwCdSfMcbfSn0Imqg3-23">
          <mxGeometry x="-0.084" relative="1" as="geometry">
            <mxPoint as="offset" />
          </mxGeometry>
        </mxCell>
        <mxCell id="RIEwCdSfMcbfSn0Imqg3-33" style="edgeStyle=orthogonalEdgeStyle;rounded=0;orthogonalLoop=1;jettySize=auto;html=1;" edge="1" parent="WIyWlLk6GJQsqaUBKTNV-1" source="RIEwCdSfMcbfSn0Imqg3-22" target="RIEwCdSfMcbfSn0Imqg3-30">
          <mxGeometry relative="1" as="geometry" />
        </mxCell>
        <mxCell id="RIEwCdSfMcbfSn0Imqg3-34" value="false" style="edgeLabel;html=1;align=center;verticalAlign=middle;resizable=0;points=[];" vertex="1" connectable="0" parent="RIEwCdSfMcbfSn0Imqg3-33">
          <mxGeometry x="-0.192" relative="1" as="geometry">
            <mxPoint as="offset" />
          </mxGeometry>
        </mxCell>
        <mxCell id="RIEwCdSfMcbfSn0Imqg3-22" value="max &amp;lt; c" style="rhombus;whiteSpace=wrap;html=1;" vertex="1" parent="WIyWlLk6GJQsqaUBKTNV-1">
          <mxGeometry x="470" y="430" width="80" height="80" as="geometry" />
        </mxCell>
        <mxCell id="RIEwCdSfMcbfSn0Imqg3-26" style="edgeStyle=orthogonalEdgeStyle;rounded=0;orthogonalLoop=1;jettySize=auto;html=1;entryX=0.417;entryY=1;entryDx=0;entryDy=0;entryPerimeter=0;" edge="1" parent="WIyWlLk6GJQsqaUBKTNV-1" source="RIEwCdSfMcbfSn0Imqg3-3" target="RIEwCdSfMcbfSn0Imqg3-12">
          <mxGeometry relative="1" as="geometry" />
        </mxCell>
        <mxCell id="RIEwCdSfMcbfSn0Imqg3-27" value="true" style="edgeLabel;html=1;align=center;verticalAlign=middle;resizable=0;points=[];" vertex="1" connectable="0" parent="RIEwCdSfMcbfSn0Imqg3-26">
          <mxGeometry x="-0.1911" y="-1" relative="1" as="geometry">
            <mxPoint as="offset" />
          </mxGeometry>
        </mxCell>
        <mxCell id="RIEwCdSfMcbfSn0Imqg3-38" value="" style="edgeStyle=orthogonalEdgeStyle;rounded=0;orthogonalLoop=1;jettySize=auto;html=1;entryX=0;entryY=0.5;entryDx=0;entryDy=0;" edge="1" parent="WIyWlLk6GJQsqaUBKTNV-1" source="RIEwCdSfMcbfSn0Imqg3-30" target="RIEwCdSfMcbfSn0Imqg3-39">
          <mxGeometry relative="1" as="geometry">
            <mxPoint x="700" y="570" as="targetPoint" />
          </mxGeometry>
        </mxCell>
        <mxCell id="RIEwCdSfMcbfSn0Imqg3-30" value="max" style="shape=parallelogram;perimeter=parallelogramPerimeter;whiteSpace=wrap;html=1;fixedSize=1;" vertex="1" parent="WIyWlLk6GJQsqaUBKTNV-1">
          <mxGeometry x="640" y="440" width="120" height="60" as="geometry" />
        </mxCell>
        <mxCell id="RIEwCdSfMcbfSn0Imqg3-39" value="End" style="ellipse;whiteSpace=wrap;html=1;" vertex="1" parent="WIyWlLk6GJQsqaUBKTNV-1">
          <mxGeometry x="640" y="570" width="120" height="80" as="geometry" />
        </mxCell>
      </root>
    </mxGraphModel>
  </diagram>
</mxfile>
